<svg width="164" height="164" viewBox="0 0 164 164" fill="none" xmlns="http://www.w3.org/2000/svg">
<path d="M81.9998 13.6667C70.5726 13.6784 59.3309 16.5556 49.3031 22.035C39.2754 27.5145 30.7819 35.4212 24.5998 45.0317C15.9048 58.668 12.3281 74.9462 14.5057 90.9714C16.6834 106.997 24.4742 121.73 36.4927 132.552C48.5112 143.373 63.9783 149.581 80.1434 150.072C96.3085 150.563 112.124 145.304 124.776 135.232C135.789 126.368 143.781 114.307 147.652 100.711C151.522 87.1147 151.081 72.6528 146.389 59.3179C141.697 45.9831 132.984 34.4317 121.452 26.2556C109.92 18.0795 96.1361 13.6812 81.9998 13.6667ZM95.6665 29.11C105.109 31.5542 113.726 36.4803 120.623 43.3772C127.52 50.2742 132.446 58.8908 134.89 68.3334C123.464 68.6551 112.312 71.9019 102.5 77.7634C97.5724 72.1736 92.0761 67.1124 86.0998 62.6617C92.1209 52.4866 95.4159 40.9305 95.6665 29.11ZM81.9998 27.3334C81.9773 37.1394 79.2842 46.7541 74.2098 55.145C73.1848 54.5984 72.2281 53.9834 71.2031 53.505C62.4043 48.8624 52.9959 45.4809 43.2548 43.46C48.3323 38.3522 54.369 34.2981 61.0181 31.5306C67.6672 28.763 74.7977 27.3366 81.9998 27.3334ZM34.1665 55.76C44.884 57.2489 55.2638 60.5778 64.8481 65.6L65.7365 66.1467C60.6928 71.1856 54.7045 75.1797 48.1145 77.9001C41.5245 80.6205 34.4625 82.0137 27.3331 82C27.3711 72.8183 29.7212 63.794 34.1665 55.76ZM68.3331 134.89C58.8906 132.446 50.274 127.52 43.377 120.623C36.4801 113.726 31.554 105.109 29.1098 95.6667C38.2368 95.464 47.2283 93.4162 55.5428 89.6464C63.8574 85.8767 71.3229 80.4631 77.4898 73.7317C82.4297 77.3834 87.0064 81.5024 91.1565 86.0317C84.2368 92.2014 78.645 99.7147 74.7213 108.114C70.7976 116.514 68.6241 125.624 68.3331 134.89ZM81.9998 136.667C82.0145 129.159 83.5754 121.736 86.585 114.858C89.5947 107.981 93.9887 101.797 99.4931 96.6917C99.9031 97.2383 100.313 97.7167 100.655 98.2634C106.381 107.032 110.629 116.682 113.228 126.827C104.082 133.248 93.1748 136.685 81.9998 136.667ZM124.435 116.167C121.467 107.126 117.332 98.5117 112.135 90.5417L110.7 88.8334C118.645 84.4132 127.575 82.0633 136.666 82C136.599 94.4495 132.284 106.503 124.435 116.167Z" fill="#FF5108"/>
</svg>
