<svg width="152" height="152" viewBox="0 0 152 152" fill="none" xmlns="http://www.w3.org/2000/svg">
<path d="M105.592 11.5425C97.6559 6.96538 88.2266 5.72768 79.3779 8.10153C70.5292 10.4754 62.9855 16.2664 58.4058 24.2012L52.1358 35.0312C48.0924 42.041 46.637 50.2474 48.0232 58.2201C49.4094 66.1929 53.5494 73.4264 59.7215 78.66L29.2883 131.337C27.7208 134.14 28.6708 137.655 31.4258 139.27C34.1808 140.837 37.7433 139.887 39.3583 137.132L69.7203 84.5737C77.3987 87.5056 85.8707 87.605 93.6158 84.8541C101.361 82.1032 107.872 76.6822 111.981 69.5637L118.251 58.7337L118.256 58.7242C127.732 42.2085 122.07 21.0805 105.597 11.5472L105.592 11.5425ZM100.51 16.8957L95.6125 25.2462L85.1863 19.2232L88.231 14.0457C92.4904 14.0236 96.6956 14.9997 100.51 16.8957ZM84.3408 14.3355L82.4123 17.6225L79.0303 15.6702C80.752 15.052 82.5309 14.6065 84.3408 14.3402M75.4108 17.2852L80.7925 20.3917L74.8598 30.4855L66.096 25.422C68.5344 22.0305 71.7197 19.2449 75.406 17.2805M64.3718 28.12L73.24 33.2452L67.2883 43.3722L58.4818 38.2897L64.3718 28.12ZM57.0093 41.1397L65.6685 46.1367L59.731 56.2447L54.6533 53.3187C54.4922 49.132 55.2984 44.9644 57.0093 41.1397ZM55.095 57.2707L58.1065 59.0092L56.387 61.9352C55.8206 60.4212 55.3882 58.8604 55.095 57.2707ZM58.0163 65.4882L60.8805 60.61L71.3258 66.6377L66.4903 74.8742C62.9686 72.4534 60.0658 69.2382 58.0163 65.4882ZM69.231 76.5367L74.0998 68.2385L84.5403 74.2615L81.3388 79.7145C77.1107 79.6066 72.9656 78.5171 69.231 76.532M85.153 79.5387L87.319 75.8622L91.2472 78.128C89.2759 78.8279 87.2314 79.3012 85.153 79.5387ZM94.8905 76.532L88.9388 73.0977L94.8857 62.9802L104.262 68.4C101.806 71.7987 98.5992 74.5848 94.8905 76.5415M105.991 65.6972L96.5103 60.23L102.448 50.122L111.858 55.5607L105.991 65.6972ZM113.335 52.7107L104.072 47.3575L110.01 37.259L115.705 40.5507C115.848 44.6357 115.088 48.792 113.335 52.7107ZM115.282 36.6082L111.625 34.4992L113.658 31.046C114.389 32.8415 114.936 34.7035 115.277 36.6035M111.953 27.607L108.851 32.8937L98.3818 26.847L103.284 18.487C106.847 20.8085 109.813 23.9318 111.953 27.607ZM92.1118 61.3842L86.1647 71.5017L75.7195 65.474L81.657 55.3565L92.1118 61.3842ZM78.883 53.7557L72.9455 63.8732L62.505 57.8502L68.4425 47.7327L78.883 53.7557ZM70.0623 44.973L76.0093 34.846L86.4355 40.869L80.498 50.9912L70.0623 44.973ZM83.272 52.592L89.2095 42.4745L99.669 48.5165L93.7315 58.6245L83.272 52.592ZM107.226 35.6535L101.289 45.752L90.834 39.71L96.7573 29.6115L107.226 35.6535ZM93.9833 28.006L88.0648 38.1092L77.6338 32.0815L83.5665 21.9877L93.9833 28.006Z" fill="#FF5108"/>
<path d="M102.153 113.715C102.495 113.106 102.688 112.424 102.716 111.726C102.744 111.028 102.607 110.334 102.315 109.699C102.023 109.064 101.585 108.508 101.037 108.075C100.489 107.642 99.8458 107.344 99.1608 107.207L84.9298 104.357L84.9013 104.372L84.9108 104.357L82.4883 103.027C80.5984 101.97 78.3661 101.707 76.282 102.295C74.1978 102.882 72.4323 104.274 71.3733 106.162C69.1883 110.057 70.5658 115.045 74.5083 117.23L76.9308 118.56L76.9403 118.536L76.9498 118.56L86.7633 129.295C88.8058 131.527 92.4158 131.1 93.8883 128.487C94.4122 127.536 94.5719 126.427 94.3377 125.367C94.1034 124.306 93.4912 123.368 92.6153 122.726C93.5494 123.205 94.632 123.305 95.6384 123.007C96.6449 122.709 97.498 122.035 98.0208 121.125C99.1133 119.177 98.4008 116.755 96.5008 115.662L95.9593 115.358L96.1208 115.425C98.2583 116.612 100.966 115.852 102.153 113.715Z" fill="#FF5108"/>
</svg>
