<svg width="152" height="152" viewBox="0 0 152 152" fill="none" xmlns="http://www.w3.org/2000/svg">
<path d="M127.11 38.6967C120.217 29.1801 110.777 21.8036 99.8765 17.4167C90.2663 13.505 79.8422 12.0143 69.5208 13.0758C59.1994 14.1372 49.2969 17.7182 40.684 23.504C32.071 29.2897 25.0115 37.103 20.1261 46.2567C15.2407 55.4104 12.6791 65.6242 12.6665 76C12.6665 77.2033 12.6665 78.4067 12.6665 79.5467C13.2192 89.4528 16.1054 99.0881 21.0898 107.667C29.2298 121.954 42.6072 132.515 58.3932 137.117C64.1307 138.669 70.0565 139.415 75.9998 139.333C79.9968 139.352 83.9856 138.97 87.9065 138.193C100.843 135.689 112.677 129.212 121.759 119.665C130.84 110.118 136.718 97.9756 138.573 84.93C139.049 81.9765 139.303 78.9915 139.333 76C139.388 62.5728 135.1 49.4876 127.11 38.6967ZM114.443 43.5733L107.666 61.6867L97.4065 64.4733L82.3332 53.77V42.0533L98.1032 30.59C104.503 33.6759 110.162 38.1041 114.697 43.5733H114.443ZM88.6665 73.91L83.7265 88.6667H68.2098L63.3332 73.91L75.9998 64.8533L88.6665 73.91ZM75.9998 25.3333C78.3536 25.3598 80.7026 25.5503 83.0298 25.9033L75.9998 30.97L68.9698 25.9033C71.2971 25.5503 73.6461 25.3598 75.9998 25.3333ZM30.9065 53.01L33.4398 61.37L26.2832 66.3733C27.1822 61.722 28.7389 57.2224 30.9065 53.01ZM39.5832 111.087L48.3232 111.403L50.6665 119.827C46.5968 117.424 42.8689 114.484 39.5832 111.087ZM50.6665 98.8L30.7165 98.1033C28.1994 93.16 26.5295 87.8293 25.7765 82.3333L41.5465 71.3133L50.6665 75.24L56.3032 92.72L50.6665 98.8ZM56.1132 63.7767L46.2332 59.3433L40.4698 40.3433C44.3545 36.3759 48.8702 33.08 53.8332 30.59L69.6665 42.0533V53.77L56.1132 63.7767ZM82.3332 126.223C76.7767 126.882 71.1498 126.626 65.6765 125.463L60.4198 106.97L65.6765 101.333H85.1198L89.3632 107.667L82.3332 126.223ZM97.5965 121.79L100.51 114L109.123 114.443C105.58 117.427 101.636 119.9 97.4065 121.79H97.5965ZM119.51 102.03L99.8132 101.333L95.3165 94.3667L100.953 76.8867L110.517 74.29L125.463 86.9567C124.258 92.2848 122.183 97.3777 119.32 102.03H119.51ZM119.826 65.1067L122.866 57C124.65 61.3048 125.781 65.8515 126.223 70.49L119.826 65.1067Z" fill="#FF5108"/>
</svg>
