<svg width="76" height="76" viewBox="0 0 76 76" fill="none" xmlns="http://www.w3.org/2000/svg">
<rect x="0.476318" y="0.476074" width="75.5238" height="75.5238" rx="15" fill="white"/>
<g clip-path="url(#clip0_30_605)">
<path d="M38.8567 31.8785V41.4682H52.1831C51.5979 44.5521 49.8418 47.1635 47.2081 48.9193L55.2444 55.1549C59.9267 50.8329 62.628 44.4848 62.628 36.9437C62.628 35.1879 62.4705 33.4994 62.1777 31.8788L38.8567 31.8785Z" fill="#4285F4"/>
<path d="M24.9794 41.0939L23.1669 42.4813L16.7512 47.4786C20.8257 55.5599 29.1766 61.1427 38.8561 61.1427C45.5417 61.1427 51.1468 58.9367 55.2439 55.1549L47.2076 48.9194C45.0015 50.4051 42.1876 51.3056 38.8561 51.3056C32.4181 51.3056 26.9481 46.961 24.9895 41.1082L24.9794 41.0939Z" fill="#34A853"/>
<path d="M16.7513 25.283C15.0631 28.6144 14.0952 32.3738 14.0952 36.3806C14.0952 40.3875 15.0631 44.1469 16.7513 47.4783C16.7513 47.5007 24.9904 41.0853 24.9904 41.0853C24.4952 39.5996 24.2024 38.0239 24.2024 36.3804C24.2024 34.7369 24.4952 33.1612 24.9904 31.6755L16.7513 25.283Z" fill="#FBBC05"/>
<path d="M38.8567 21.4786C42.5035 21.4786 45.745 22.7392 48.3337 25.1704L55.4245 18.0796C51.125 14.0727 45.5425 11.6189 38.8567 11.6189C29.1771 11.6189 20.8257 17.1791 16.7512 25.283L24.9901 31.6761C26.9484 25.8232 32.4186 21.4786 38.8567 21.4786Z" fill="#EA4335"/>
</g>
<defs>
<clipPath id="clip0_30_605">
<rect width="49.5238" height="49.5238" fill="white" transform="translate(14.0952 11.6189)"/>
</clipPath>
</defs>
</svg>
