<svg width="451" height="73" viewBox="0 0 451 73" fill="none" xmlns="http://www.w3.org/2000/svg">
<path d="M38.3101 23.9115C36.2101 23.9115 34.1572 24.5342 32.4112 25.7009C30.6651 26.8676 29.3042 28.5258 28.5006 30.466C27.6969 32.4061 27.4867 34.5409 27.8964 36.6006C28.3061 38.6602 29.3173 40.5521 30.8022 42.037C32.2871 43.5219 34.179 44.5332 36.2386 44.9429C38.2983 45.3525 40.4331 45.1423 42.3733 44.3386C44.3134 43.535 45.9717 42.1741 47.1384 40.428C48.305 38.682 48.9278 36.6292 48.9278 34.5292C48.9278 31.7132 47.8091 29.0125 45.8179 27.0213C43.8267 25.0301 41.126 23.9115 38.3101 23.9115ZM38.3101 40.8998C37.0501 40.8998 35.8184 40.5262 34.7707 39.8261C33.7231 39.1261 32.9065 38.1312 32.4244 36.9671C31.9422 35.803 31.816 34.5221 32.0618 33.2863C32.3077 32.0505 32.9144 30.9154 33.8053 30.0245C34.6963 29.1335 35.8314 28.5268 37.0672 28.281C38.303 28.0351 39.5839 28.1613 40.748 28.6435C41.9121 29.1257 42.907 29.9422 43.607 30.9898C44.307 32.0375 44.6807 33.2692 44.6807 34.5292C44.6807 36.2188 44.0095 37.8392 42.8148 39.0339C41.62 40.2286 39.9996 40.8998 38.3101 40.8998ZM48.9278 21.7879C48.5078 21.7879 48.0972 21.9125 47.748 22.1458C47.3988 22.3791 47.1266 22.7108 46.9659 23.0988C46.8051 23.4868 46.7631 23.9138 46.845 24.3257C46.927 24.7377 47.1292 25.1161 47.4262 25.413C47.7232 25.71 48.1015 25.9123 48.5135 25.9942C48.9254 26.0761 49.3524 26.0341 49.7404 25.8734C50.1284 25.7126 50.4601 25.4405 50.6934 25.0912C50.9268 24.742 51.0513 24.3315 51.0513 23.9115C51.0513 23.3483 50.8276 22.8081 50.4293 22.4099C50.0311 22.0117 49.491 21.7879 48.9278 21.7879ZM59.418 26.5447C59.3829 24.7299 59.0381 22.9345 58.3987 21.2358C57.8058 19.69 56.8944 18.2862 55.7237 17.1155C54.553 15.9448 53.1492 15.0334 51.6034 14.4405C49.9047 13.8011 48.1093 13.4564 46.2946 13.4212C44.2347 13.2938 43.5552 13.2938 38.3101 13.2938C33.0649 13.2938 32.3854 13.2938 30.3255 13.4212C28.5108 13.4564 26.7154 13.8011 25.0167 14.4405C23.4709 15.0334 22.0671 15.9448 20.8964 17.1155C19.7257 18.2862 18.8143 19.69 18.2214 21.2358C17.582 22.9345 17.2372 24.7299 17.2021 26.5447C17.0746 28.6257 17.0746 29.3053 17.0746 34.5292C17.0746 39.7531 17.0746 40.4326 17.2021 42.5137C17.2372 44.3284 17.582 46.1238 18.2214 47.8225C18.8143 49.3683 19.7257 50.7721 20.8964 51.9428C22.0671 53.1135 23.4709 54.0249 25.0167 54.6179C26.7154 55.2573 28.5108 55.602 30.3255 55.6372C32.4491 55.6372 33.0649 55.7646 38.3101 55.7646C43.5552 55.7646 44.2347 55.7646 46.2946 55.6372C48.1093 55.602 49.9047 55.2573 51.6034 54.6179C53.1492 54.0249 54.553 53.1135 55.7237 51.9428C56.8944 50.7721 57.8058 49.3683 58.3987 47.8225C59.0381 46.1238 59.3829 44.3284 59.418 42.5137C59.418 40.3901 59.5455 39.7531 59.5455 34.5292C59.5455 29.3053 59.5455 28.6257 59.418 26.5447ZM55.171 42.3226C55.1337 43.6702 54.8829 45.0034 54.4277 46.2724C54.0514 47.2754 53.4566 48.1821 52.6864 48.9268C51.9462 49.6973 51.0377 50.286 50.032 50.6468C48.76 51.1206 47.4179 51.379 46.061 51.4113C44.0648 51.4113 43.449 51.5175 38.2888 51.5175C33.1286 51.5175 32.534 51.5175 30.5379 51.5175C29.1831 51.4825 27.8426 51.2316 26.5669 50.7743C25.5638 50.3979 24.6571 49.8031 23.9124 49.033C23.1419 48.2927 22.5532 47.3842 22.1924 46.3785C21.7205 45.1134 21.4622 43.7786 21.4279 42.4287C21.4279 40.3052 21.4279 39.7743 21.4279 34.6353C21.4279 29.4964 21.4279 28.8806 21.4279 26.842C21.4645 25.4854 21.7227 24.1441 22.1924 22.8709C22.5588 21.8742 23.147 20.9738 23.9124 20.2377C24.6527 19.4672 25.5612 18.8785 26.5669 18.5177C27.8389 18.0439 29.1809 17.7855 30.5379 17.7532C32.534 17.5408 33.1498 17.5408 38.3101 17.5408C43.4703 17.5408 44.0861 17.5408 46.0822 17.5408C47.4458 17.5755 48.7945 17.8338 50.0745 18.3053C51.0712 18.6718 51.9716 19.2599 52.7077 20.0254C53.4782 20.7656 54.0669 21.6741 54.4277 22.6798C54.9476 23.9721 55.242 25.344 55.2984 26.7358C55.2984 28.8593 55.4046 29.3902 55.4046 34.5292C55.4046 39.6681 55.2984 40.284 55.2984 42.3226H55.171Z" fill="white"/>
<path d="M37.8782 71.0136C57.7349 71.0136 73.9307 55.506 73.9307 36.2568C73.9307 17.0076 57.7349 1.5 37.8782 1.5C18.0214 1.5 1.82562 17.0076 1.82562 36.2568C1.82562 55.506 18.0214 71.0136 37.8782 71.0136Z" stroke="white" stroke-width="3"/>
<path d="M127.715 71.0136C147.571 71.0136 163.767 55.506 163.767 36.2568C163.767 17.0076 147.571 1.5 127.715 1.5C107.858 1.5 91.6622 17.0076 91.6622 36.2568C91.6622 55.506 107.858 71.0136 127.715 71.0136Z" stroke="white" stroke-width="3"/>
<path d="M142.399 29.9073C142.204 29.6552 141.941 29.4488 141.634 29.3063C141.326 29.1638 140.984 29.0895 140.636 29.09H134.265V25.3749H138.937C139.5 25.3749 140.04 25.1792 140.439 24.8308C140.837 24.4824 141.061 24.01 141.061 23.5173V16.0871C141.061 15.5945 140.837 15.122 140.439 14.7736C140.04 14.4253 139.5 14.2296 138.937 14.2296H132.142C128.875 14.2296 125.743 15.3646 123.433 17.3851C121.123 19.4056 119.825 22.146 119.825 25.0034V29.09H115.154C114.59 29.09 114.05 29.2857 113.652 29.634C113.254 29.9824 113.03 30.4549 113.03 30.9475V38.3777C113.03 38.8704 113.254 39.3429 113.652 39.6912C114.05 40.0396 114.59 40.2353 115.154 40.2353H119.825V53.2382C119.825 53.7308 120.049 54.2033 120.447 54.5517C120.846 54.9 121.386 55.0957 121.949 55.0957H132.142C132.705 55.0957 133.245 54.9 133.643 54.5517C134.042 54.2033 134.265 53.7308 134.265 53.2382V40.2353H137.238C137.664 40.2357 138.079 40.1243 138.431 39.9157C138.783 39.707 139.056 39.4107 139.213 39.065L142.611 31.6348C142.739 31.3535 142.787 31.0491 142.75 30.748C142.713 30.4469 142.592 30.1583 142.399 29.9073ZM135.794 36.5202H132.142C131.579 36.5202 131.039 36.7159 130.64 37.0643C130.242 37.4126 130.018 37.8851 130.018 38.3777V51.3806H124.072V38.3777C124.072 37.8851 123.849 37.4126 123.45 37.0643C123.052 36.7159 122.512 36.5202 121.949 36.5202H117.277V32.8051H121.949C122.512 32.8051 123.052 32.6094 123.45 32.261C123.849 31.9127 124.072 31.4402 124.072 30.9475V25.0034C124.078 23.1328 124.93 21.3402 126.442 20.0175C127.954 18.6948 130.003 17.9496 132.142 17.9447H136.814V21.6598H135.115C134.396 21.5681 133.663 21.6066 132.962 21.7727C132.26 21.9389 131.605 22.2292 131.038 22.6257C130.693 22.9413 130.425 23.3147 130.25 23.7233C130.075 24.1319 129.996 24.5674 130.018 25.0034V30.9475C130.018 31.4402 130.242 31.9127 130.64 32.261C131.039 32.6094 131.579 32.8051 132.142 32.8051H137.493L135.794 36.5202Z" fill="white"/>
<path d="M233.664 19.2465H239.492L226.759 33.7991L241.738 53.602H230.01L220.823 41.5916L210.312 53.602H204.481L218.1 38.0363L203.73 19.2465H215.756L224.06 30.2244L233.664 19.2465ZM231.618 50.1136H234.848L214.002 22.5516H210.536L231.618 50.1136Z" fill="white"/>
<path d="M222.734 71.0136C242.591 71.0136 258.787 55.506 258.787 36.2568C258.787 17.0076 242.591 1.5 222.734 1.5C202.877 1.5 186.682 17.0076 186.682 36.2568C186.682 55.506 202.877 71.0136 222.734 71.0136Z" stroke="white" stroke-width="3"/>
<g clip-path="url(#clip0_21_418)">
<path d="M334.744 15.9572H301.62C300.033 15.9572 298.75 17.2099 298.75 18.7587V52.0197C298.75 53.5685 300.033 54.8288 301.62 54.8288H334.744C336.331 54.8288 337.621 53.5685 337.621 52.0273V18.7587C337.621 17.2099 336.331 15.9572 334.744 15.9572ZM310.282 49.0816H304.512V30.5265H310.282V49.0816ZM307.397 27.9983C305.545 27.9983 304.049 26.5027 304.049 24.6578C304.049 22.8129 305.545 21.3172 307.397 21.3172C309.242 21.3172 310.738 22.8129 310.738 24.6578C310.738 26.4951 309.242 27.9983 307.397 27.9983ZM331.874 49.0816H326.112V40.0622C326.112 37.9136 326.074 35.1425 323.113 35.1425C320.114 35.1425 319.658 37.4884 319.658 39.9103V49.0816H313.904V30.5265H319.431V33.0622H319.507C320.273 31.6046 322.156 30.0634 324.958 30.0634C330.796 30.0634 331.874 33.905 331.874 38.9006V49.0816Z" fill="white"/>
</g>
<path d="M317.754 71.0136C337.61 71.0136 353.806 55.506 353.806 36.2568C353.806 17.0076 337.61 1.5 317.754 1.5C297.897 1.5 281.701 17.0076 281.701 36.2568C281.701 55.506 297.897 71.0136 317.754 71.0136Z" stroke="white" stroke-width="3"/>
<path d="M412.773 71.0136C432.63 71.0136 448.826 55.506 448.826 36.2568C448.826 17.0076 432.63 1.5 412.773 1.5C392.916 1.5 376.721 17.0076 376.721 36.2568C376.721 55.506 392.916 71.0136 412.773 71.0136Z" stroke="white" stroke-width="3"/>
<g clip-path="url(#clip1_21_418)">
<path d="M433.092 26.6686C433.092 26.6686 432.687 23.8099 431.44 22.5546C429.86 20.9026 428.095 20.8945 427.285 20.7973C421.487 20.3762 412.781 20.3762 412.781 20.3762H412.765C412.765 20.3762 404.059 20.3762 398.261 20.7973C397.451 20.8945 395.686 20.9026 394.107 22.5546C392.86 23.8099 392.463 26.6686 392.463 26.6686C392.463 26.6686 392.042 30.0293 392.042 33.382V36.5241C392.042 39.8768 392.455 43.2376 392.455 43.2376C392.455 43.2376 392.86 46.0963 394.099 47.3515C395.678 49.0035 397.751 48.9468 398.674 49.125C401.994 49.4408 412.773 49.538 412.773 49.538C412.773 49.538 421.487 49.5218 427.285 49.1088C428.095 49.0116 429.86 49.0035 431.44 47.3515C432.687 46.0963 433.092 43.2376 433.092 43.2376C433.092 43.2376 433.505 39.8849 433.505 36.5241V33.382C433.505 30.0293 433.092 26.6686 433.092 26.6686ZM408.489 40.3384V28.685L419.689 34.532L408.489 40.3384Z" fill="white"/>
</g>
<defs>
<clipPath id="clip0_21_418">
<rect width="38.8716" height="38.8716" fill="white" transform="translate(298.75 15.9572)"/>
</clipPath>
<clipPath id="clip1_21_418">
<rect width="41.463" height="41.463" fill="white" transform="translate(392.042 14.2296)"/>
</clipPath>
</defs>
</svg>
