<svg width="152" height="152" viewBox="0 0 152 152" fill="none" xmlns="http://www.w3.org/2000/svg">
<path d="M129.504 21.66C116.584 9.12 101.308 1.9 83.6 0V27.512L152 66.88C149.872 49.4 142.348 34.2 129.504 21.66ZM76 152C102.144 152 122.816 141.512 138.092 120.536L114.456 106.4L46.132 145.92C55.632 149.948 65.664 152 76 152ZM83.6 71.516L145.54 106.932C148.884 99.788 151.088 92.264 152 84.436L83.6 45.068V71.516ZM14.288 120.156C19.304 127.072 24.776 132.696 30.78 136.8L99.104 98.04L76 84.74L14.288 120.156ZM68.704 0C60.8 0.684 53.2 2.736 45.6 6.08V84.74L68.704 71.516V0ZM0 76C0 86.564 2.28 97.052 6.764 107.312L30.4 93.328V15.2C10.108 30.4 0 50.54 0 76Z" fill="#FF5108"/>
</svg>
