<svg width="50" height="51" viewBox="0 0 50 51" fill="none" xmlns="http://www.w3.org/2000/svg">
<path d="M43.7503 8.83332H37.5003V6.74999C37.5003 6.19746 37.2808 5.66755 36.8901 5.27685C36.4994 4.88615 35.9695 4.66666 35.417 4.66666H14.5837C14.0311 4.66666 13.5012 4.88615 13.1105 5.27685C12.7198 5.66755 12.5003 6.19746 12.5003 6.74999V8.83332H6.25033C5.69779 8.83332 5.16789 9.05282 4.77719 9.44352C4.38649 9.83422 4.16699 10.3641 4.16699 10.9167V17.1667C4.16699 19.3768 5.04497 21.4964 6.60777 23.0592C8.17057 24.622 10.2902 25.5 12.5003 25.5H15.7087C17.5931 27.6024 20.1338 29.0049 22.917 29.4792V33.8333H20.8337C19.1761 33.8333 17.5863 34.4918 16.4142 35.6639C15.2421 36.836 14.5837 38.4257 14.5837 40.0833V44.25C14.5837 44.8025 14.8032 45.3324 15.1939 45.7231C15.5846 46.1138 16.1145 46.3333 16.667 46.3333H33.3337C33.8862 46.3333 34.4161 46.1138 34.8068 45.7231C35.1975 45.3324 35.417 44.8025 35.417 44.25V40.0833C35.417 38.4257 34.7585 36.836 33.5864 35.6639C32.4143 34.4918 30.8246 33.8333 29.167 33.8333H27.0837V29.4792C29.8669 29.0049 32.4075 27.6024 34.292 25.5H37.5003C39.7105 25.5 41.8301 24.622 43.3929 23.0592C44.9557 21.4964 45.8337 19.3768 45.8337 17.1667V10.9167C45.8337 10.3641 45.6142 9.83422 45.2235 9.44352C44.8328 9.05282 44.3029 8.83332 43.7503 8.83332ZM12.5003 21.3333C11.3953 21.3333 10.3354 20.8943 9.55405 20.1129C8.77265 19.3315 8.33366 18.2717 8.33366 17.1667V13H12.5003V17.1667C12.5049 18.5869 12.7515 19.9959 13.2295 21.3333H12.5003ZM29.167 38C29.7195 38 30.2494 38.2195 30.6401 38.6102C31.0308 39.0009 31.2503 39.5308 31.2503 40.0833V42.1667H18.7503V40.0833C18.7503 39.5308 18.9698 39.0009 19.3605 38.6102C19.7512 38.2195 20.2811 38 20.8337 38H29.167ZM33.3337 17.1667C33.3337 19.3768 32.4557 21.4964 30.8929 23.0592C29.3301 24.622 27.2105 25.5 25.0003 25.5C22.7902 25.5 20.6706 24.622 19.1078 23.0592C17.545 21.4964 16.667 19.3768 16.667 17.1667V8.83332H33.3337V17.1667ZM41.667 17.1667C41.667 18.2717 41.228 19.3315 40.4466 20.1129C39.6652 20.8943 38.6054 21.3333 37.5003 21.3333H36.7712C37.2492 19.9959 37.4957 18.5869 37.5003 17.1667V13H41.667V17.1667Z" fill="#F65800"></path>
</svg>
