<svg width="152" height="152" viewBox="0 0 152 152" fill="none" xmlns="http://www.w3.org/2000/svg">
<path d="M90.8198 112.543L99.7498 103.613L126.666 130.34L117.546 139.333L90.8198 112.543ZM117.166 12.6667C123.045 12.6667 128.684 15.0021 132.841 19.1592C136.998 23.3162 139.333 28.9544 139.333 34.8334C139.333 40.7123 136.998 46.3505 132.841 50.5075C128.684 54.6646 123.045 57 117.166 57C111.288 57 105.649 54.6646 101.492 50.5075C97.3352 46.3505 94.9998 40.7123 94.9998 34.8334C94.9998 28.9544 97.3352 23.3162 101.492 19.1592C105.649 15.0021 111.288 12.6667 117.166 12.6667ZM14.1865 45.03L32.1098 27.1067C33.3179 25.9192 34.9442 25.2538 36.6381 25.2538C38.3321 25.2538 39.9584 25.9192 41.1665 27.1067L94.8098 80.8767C97.2798 83.3467 97.2798 87.3367 94.8098 89.8067L76.8865 107.667C76.3021 108.268 75.6031 108.746 74.8307 109.073C74.0583 109.399 73.2283 109.567 72.3898 109.567C71.5513 109.567 70.7213 109.399 69.9489 109.073C69.1766 108.746 68.4775 108.268 67.8932 107.667L14.1865 54.0233C11.7165 51.49 11.7165 47.5 14.1865 45.03Z" fill="#FF5108"></path>
</svg>
