<svg width="62" height="61" viewBox="0 0 62 61" fill="none" xmlns="http://www.w3.org/2000/svg">
<path d="M49.0757 10.1667H13.4924C11.4702 10.1667 9.53071 10.97 8.10074 12.4C6.67078 13.83 5.86743 15.7694 5.86743 17.7917V43.2084C5.86743 45.2306 6.67078 47.1701 8.10074 48.6001C9.53071 50.03 11.4702 50.8334 13.4924 50.8334H49.0757C51.098 50.8334 53.0375 50.03 54.4674 48.6001C55.8974 47.1701 56.7007 45.2306 56.7007 43.2084V17.7917C56.7007 15.7694 55.8974 13.83 54.4674 12.4C53.0375 10.97 51.098 10.1667 49.0757 10.1667ZM48.0337 15.25L33.0887 30.195C32.8524 30.4333 32.5713 30.6223 32.2616 30.7514C31.9518 30.8804 31.6196 30.9468 31.2841 30.9468C30.9486 30.9468 30.6163 30.8804 30.3066 30.7514C29.9969 30.6223 29.7158 30.4333 29.4795 30.195L14.5345 15.25H48.0337ZM51.6174 43.2084C51.6174 43.8825 51.3496 44.5289 50.873 45.0056C50.3963 45.4823 49.7498 45.75 49.0757 45.75H13.4924C12.8183 45.75 12.1719 45.4823 11.6952 45.0056C11.2185 44.5289 10.9508 43.8825 10.9508 43.2084V18.8338L25.8958 33.7788C27.3254 35.2067 29.2635 36.0087 31.2841 36.0087C33.3047 36.0087 35.2427 35.2067 36.6724 33.7788L51.6174 18.8338V43.2084Z" fill="white"></path>
</svg>
