<svg width="75" height="76" viewBox="0 0 75 76" fill="none" xmlns="http://www.w3.org/2000/svg">
<path d="M37.5002 6.75C31.4392 6.76152 25.5123 8.53535 20.4416 11.8554C15.3708 15.1755 11.3749 19.8986 8.94065 25.4493C6.50642 31 5.73889 37.1388 6.73155 43.118C7.7242 49.0972 10.4342 54.6586 14.5315 59.125C17.4578 62.297 21.0094 64.8285 24.9625 66.56C28.9156 68.2915 33.1845 69.1854 37.5002 69.1854C41.8159 69.1854 46.0848 68.2915 50.0379 66.56C53.991 64.8285 57.5426 62.297 60.469 59.125C64.5662 54.6586 67.2762 49.0972 68.2689 43.118C69.2615 37.1388 68.494 31 66.0598 25.4493C63.6255 19.8986 59.6297 15.1755 54.5589 11.8554C49.4881 8.53535 43.5612 6.76152 37.5002 6.75ZM37.5002 63C31.0267 62.9902 24.8093 60.4696 20.1565 55.9688C21.5691 52.5298 23.9722 49.5884 27.0604 47.5184C30.1486 45.4484 33.7824 44.3431 37.5002 44.3431C41.218 44.3431 44.8519 45.4484 47.94 47.5184C51.0282 49.5884 53.4313 52.5298 54.844 55.9688C50.1911 60.4696 43.9738 62.9902 37.5002 63ZM31.2502 31.75C31.2502 30.5139 31.6168 29.3055 32.3035 28.2777C32.9903 27.2499 33.9664 26.4488 35.1084 25.9758C36.2505 25.5027 37.5071 25.3789 38.7195 25.6201C39.9319 25.8612 41.0455 26.4565 41.9196 27.3306C42.7937 28.2047 43.389 29.3183 43.6301 30.5307C43.8713 31.7431 43.7475 32.9997 43.2745 34.1418C42.8014 35.2838 42.0003 36.2599 40.9725 36.9467C39.9447 37.6334 38.7363 38 37.5002 38C35.8426 38 34.2529 37.3415 33.0808 36.1694C31.9087 34.9973 31.2502 33.4076 31.2502 31.75ZM59.094 50.5C56.3019 45.7242 52.0046 42.0095 46.8752 39.9375C48.4664 38.1333 49.5031 35.9083 49.8611 33.5295C50.219 31.1507 49.8829 28.7191 48.8932 26.5266C47.9034 24.334 46.302 22.4736 44.2812 21.1686C42.2603 19.8637 39.9058 19.1695 37.5002 19.1695C35.0946 19.1695 32.7401 19.8637 30.7193 21.1686C28.6984 22.4736 27.097 24.334 26.1072 26.5266C25.1175 28.7191 24.7814 31.1507 25.1394 33.5295C25.4973 35.9083 26.5341 38.1333 28.1252 39.9375C22.9958 42.0095 18.6986 45.7242 15.9065 50.5C13.6813 46.7097 12.5056 42.3952 12.5002 38C12.5002 31.3696 15.1341 25.0107 19.8225 20.3223C24.511 15.6339 30.8698 13 37.5002 13C44.1306 13 50.4895 15.6339 55.1779 20.3223C59.8663 25.0107 62.5002 31.3696 62.5002 38C62.4948 42.3952 61.3191 46.7097 59.094 50.5Z" fill="#FF5108"></path>
</svg>
