<svg width="75" height="75" viewBox="0 0 75 75" fill="none" xmlns="http://www.w3.org/2000/svg">
<path d="M37.5002 6.25C31.4392 6.26152 25.5123 8.03535 20.4416 11.3554C15.3708 14.6755 11.3749 19.3986 8.94065 24.9493C6.50642 30.5 5.73889 36.6388 6.73155 42.618C7.7242 48.5972 10.4342 54.1586 14.5315 58.625C17.4578 61.797 21.0094 64.3285 24.9625 66.06C28.9156 67.7915 33.1845 68.6854 37.5002 68.6854C41.8159 68.6854 46.0848 67.7915 50.0379 66.06C53.991 64.3285 57.5426 61.797 60.469 58.625C64.5662 54.1586 67.2762 48.5972 68.2689 42.618C69.2615 36.6388 68.494 30.5 66.0598 24.9493C63.6255 19.3986 59.6297 14.6755 54.5589 11.3554C49.4881 8.03535 43.5612 6.26152 37.5002 6.25ZM37.5002 62.5C31.0267 62.4902 24.8093 59.9696 20.1565 55.4688C21.5691 52.0298 23.9722 49.0884 27.0604 47.0184C30.1486 44.9484 33.7824 43.8431 37.5002 43.8431C41.218 43.8431 44.8519 44.9484 47.94 47.0184C51.0282 49.0884 53.4313 52.0298 54.844 55.4688C50.1911 59.9696 43.9738 62.4902 37.5002 62.5ZM31.2502 31.25C31.2502 30.0139 31.6168 28.8055 32.3035 27.7777C32.9903 26.7499 33.9664 25.9488 35.1084 25.4758C36.2505 25.0027 37.5071 24.8789 38.7195 25.1201C39.9319 25.3612 41.0455 25.9565 41.9196 26.8306C42.7937 27.7047 43.389 28.8183 43.6301 30.0307C43.8713 31.2431 43.7475 32.4997 43.2745 33.6418C42.8014 34.7838 42.0003 35.7599 40.9725 36.4467C39.9447 37.1334 38.7363 37.5 37.5002 37.5C35.8426 37.5 34.2529 36.8415 33.0808 35.6694C31.9087 34.4973 31.2502 32.9076 31.2502 31.25ZM59.094 50C56.3019 45.2242 52.0046 41.5095 46.8752 39.4375C48.4664 37.6333 49.5031 35.4083 49.8611 33.0295C50.219 30.6507 49.8829 28.2191 48.8932 26.0266C47.9034 23.834 46.302 21.9736 44.2812 20.6686C42.2603 19.3637 39.9058 18.6695 37.5002 18.6695C35.0946 18.6695 32.7401 19.3637 30.7193 20.6686C28.6984 21.9736 27.097 23.834 26.1072 26.0266C25.1175 28.2191 24.7814 30.6507 25.1394 33.0295C25.4973 35.4083 26.5341 37.6333 28.1252 39.4375C22.9958 41.5095 18.6986 45.2242 15.9065 50C13.6813 46.2097 12.5056 41.8952 12.5002 37.5C12.5002 30.8696 15.1341 24.5107 19.8225 19.8223C24.511 15.1339 30.8698 12.5 37.5002 12.5C44.1306 12.5 50.4895 15.1339 55.1779 19.8223C59.8663 24.5107 62.5002 30.8696 62.5002 37.5C62.4948 41.8952 61.3191 46.2097 59.094 50Z" fill="#FF5108"></path>
</svg>
