<svg width="51" height="51" viewBox="0 0 51 51" fill="none" xmlns="http://www.w3.org/2000/svg">
<g clip-path="url('#clip0_30_604')">
<path d="M46.207 39.2135C45.4398 40.9438 44.5317 42.5364 43.4795 44.0007C42.0453 45.9969 40.871 47.3786 39.966 48.1459C38.5631 49.4054 37.06 50.0504 35.4504 50.0871C34.2949 50.0871 32.9013 49.7661 31.2792 49.115C29.6518 48.4669 28.1562 48.1459 26.7887 48.1459C25.3545 48.1459 23.8163 48.4669 22.171 49.115C20.5232 49.7661 19.1958 50.1054 18.1808 50.139C16.6373 50.2032 15.0988 49.5399 13.5632 48.1459C12.583 47.3114 11.357 45.8807 9.88835 43.854C8.31259 41.6897 7.01709 39.1799 6.00218 36.3186C4.91524 33.2281 4.37036 30.2353 4.37036 27.338C4.37036 24.0191 5.10501 21.1565 6.57649 18.7578C7.73295 16.831 9.27145 15.3111 11.197 14.1953C13.1226 13.0795 15.2031 12.5109 17.4437 12.4745C18.6697 12.4745 20.2774 12.8447 22.2753 13.5723C24.2675 14.3023 25.5467 14.6725 26.1076 14.6725C26.5269 14.6725 27.948 14.2396 30.357 13.3766C32.6352 12.5763 34.5579 12.245 36.133 12.3755C40.4013 12.7118 43.6079 14.3543 45.7404 17.3134C41.9232 19.5712 40.0349 22.7336 40.0724 26.7905C40.1069 29.9504 41.2812 32.58 43.5891 34.6679C44.635 35.6369 45.8031 36.3859 47.1026 36.9178C46.8208 37.7156 46.5233 38.4799 46.207 39.2135ZM36.418 1.6102C36.418 4.08696 35.4911 6.3995 33.6435 8.53997C31.4139 11.0846 28.717 12.5549 25.7926 12.3229C25.7553 12.0258 25.7337 11.7131 25.7337 11.3844C25.7337 9.00676 26.794 6.46217 28.677 4.38162C29.617 3.3282 30.8126 2.4523 32.2625 1.75357C33.7093 1.06527 35.0777 0.68463 36.3648 0.619446C36.4023 0.95055 36.418 1.28167 36.418 1.61017V1.6102Z" fill="black"></path>
</g>
<defs>
<clipPath id="clip0_30_604">
<rect width="50.7317" height="49.5238" fill="white" transform="translate(0.142822 0.618896)"></rect>
</clipPath>
</defs>
</svg>
